# xmcd CD database file
#
# Track frame offsets:
#	150
#	14247
#	27756
#	44120
#	62310
#	89026
#	104383
#	122943
#	136989
#	159140
#	171679
#	192137
#	205348
#	223142
#	245027
#	258379
#	275017
#	295900
#
# Disc length: 4149 seconds
#
# Revision: 0
# Processed by: cddbd v1.5.1PL0 Copyright (c) Steve Scherf et al.
# Submitted via: CDex 1.51
#
DISCID=21103312
DTITLE=Selena Jones - Sings Your Favorite
DYEAR=2005
DGENRE=Jazz
TTITLE0=Selena Jones I Can See Clearly Now
TTITLE1=Selena Jones The Way We Were
TTITLE2=Selena Jones My Way
TTITLE3=Selena Jones Feelings
TTITLE4=Selena Jones You've Got A Friend
TTITLE5=Selena Jones If
TTITLE6=Selena Jones And I Love You So
TTITLE7=Selena Jones You Light Up My Life
TTITLE8=Selena Jones Bridge Over Troubled Water
TTITLE9=Selena Jones A Song For You
TTITLE10=Selena Jones Just The Way You Are
TTITLE11=Selena Jones Autumn Leaves
TTITLE12=Selena Jones Misty
TTITLE13=Selena Jones Over The Rainbow
TTITLE14=Selena Jones Sentimental Journey
TTITLE15=Selena Jones As Time Goes By
TTITLE16=Selena Jones Love Is A Many Splendored Thing
TTITLE17=Selena Jones Singing In The Rain
EXTD=YEAR: 2005
EXTT0=
EXTT1=
EXTT2=
EXTT3=
EXTT4=
EXTT5=
EXTT6=
EXTT7=
EXTT8=
EXTT9=
EXTT10=
EXTT11=
EXTT12=
EXTT13=
EXTT14=
EXTT15=
EXTT16=
EXTT17=
PLAYORDER=
